<svg xmlns="http://www.w3.org/2000/svg" xmlns:svgjs="http://svgjs.com/svgjs" xmlns:xlink="http://www.w3.org/1999/xlink" width="288" height="288"><svg xmlns="http://www.w3.org/2000/svg" width="288" height="288" viewBox="0 0 48 48"><circle cx="24" cy="24" r="24" fill="#45efa8" fill-rule="evenodd" class="coloref4c45 svgShape"/><path fill="#fff" d="m 16.000041,11.996641 c -0.276,0 -0.5,0.224 -0.5,0.5 l 0,1.5 -2,0 c -0.197,0 -0.377031,0.115875 -0.457031,0.296875 l -2,4.5 c -0.001,0.001 10e-4,0.0029 0,0.0039 -0.012,0.028 -0.01548,0.0608 -0.02148,0.0918 -0.008,0.035 -0.01953,0.06852 -0.01953,0.103516 0,0.001 -0.002,0.0029 -0.002,0.0039 l 0,1 c 0,1.103 0.897,2 2,2 l 0,10 -1.5,0 c -0.276,0 -0.5,0.223999 -0.5,0.5 l 0,2 c 0,0.276 0.224,0.5 0.5,0.5 l 24,0 c 0.276,0 0.5,-0.224 0.5,-0.5 l 0,-2 c 0,-0.276001 -0.224,-0.5 -0.5,-0.5 l -1.5,0 0,-10 c 1.103,0 2,-0.897 2,-2 l 0,-1 c 0,-0.001 -0.002,-0.0029 -0.002,-0.0039 0,-0.034 -0.01153,-0.06852 -0.01953,-0.103516 -0.007,-0.031 -0.0095,-0.0628 -0.02148,-0.0918 -10e-4,-10e-4 0.001,-0.0029 0,-0.0039 l -2,-4.5 c -0.07992,-0.181 -0.259949,-0.296875 -0.456949,-0.296875 l -2,0 0,-1.5 c 0,-0.276 -0.224,-0.5 -0.5,-0.5 l -15,0 z m 0.5,1 14,0 0,1 -2,0 -2.5,0 -5,0 -2.5,0 -2,0 0,-1 z m -2.675781,2 1.482422,0 -1.28125,3.841797 c -0.009,0.027 -0.0058,0.05403 -0.0098,0.08203 -0.004,0.025 -0.01562,0.04917 -0.01562,0.07617 l 0,1 c 0,0.551 -0.448,1 -1,1 -0.552,0 -1,-0.449 -1,-1 l 0,-0.894531 1.824248,-4.105466 z m 2.535156,0 1.517578,0 -0.865234,3.892578 c -0.004,0.019 4.7e-5,0.03669 -0.0019,0.05469 -0.001,0.018 -0.0098,0.03373 -0.0098,0.05273 l 0,1 c 0,0.551 -0.448,1 -1,1 -0.552,0 -1,-0.449 -1,-1 l 0,-0.917969 1.359356,-4.082029 z m 2.541016,0 1.541015,0 -0.4375,3.945312 c -0.001,0.01 0.002,0.01734 0.002,0.02734 -10e-4,0.009 -0.0059,0.01735 -0.0059,0.02735 l 0,1 c 0,0.550999 -0.448,1 -1,1 -0.552,0 -1,-0.449001 -1,-1 l 0,-0.94336 0.900385,-4.056642 z m 2.546875,0 1.552734,0 0,4 0,1 c 0,0.550999 -0.448,1 -1,1 -0.552,0 -1,-0.449001 -1,-1 l 0,-0.970703 0.447266,-4.029297 z m 2.552734,0 1.552734,0 0.447266,4.029297 0,0.970703 c 0,0.550999 -0.448,1 -1,1 -0.552,0 -1,-0.449001 -1,-1 l 0,-1 0,-4 z m 2.558594,0 1.541015,0 0.900391,4.056641 0,0.943359 c 0,0.550999 -0.448,1 -1,1 -0.552,0 -1,-0.449001 -1,-1 l 0,-1 c 0,-0.01 -0.0059,-0.01834 -0.0059,-0.02734 0,-0.01 0.0049,-0.01734 0.0039,-0.02734 l -0.439406,-3.94532 z m 2.564453,0 1.515625,0 1.359375,4.082031 0,0.917969 0.002,0 c 0,0.550999 -0.448,1 -1,1 -0.552,0 -1,-0.449001 -1,-1 l 0,-1 c 0,-0.019 -0.0097,-0.03473 -0.01172,-0.05273 -0.002,-0.019 0.004,-0.03569 0,-0.05469 l -0.86528,-3.89258 z m 2.570312,0 1.482422,0 1.824219,4.105469 0,0.894531 c 0,0.550999 -0.448,1 -1,1 -0.552,0 -1,-0.449001 -1,-1 l 0,-1 c 0,-0.027 -0.01162,-0.05017 -0.01563,-0.07617 -0.004,-0.027 -7.66e-4,-0.05503 -0.0098,-0.08203 l -1.281211,-3.8418 z m -17.193359,6.308594 c 0.367,0.42 0.9,0.691406 1.5,0.691406 l 0,6.5 c 0,0.276 0.224,0.5 0.5,0.5 l 8,0 c 0.276,0 0.5,-0.224 0.5,-0.5 l 0,-6.5 c 0.6,0 1.133,-0.271406 1.5,-0.691406 0.367,0.42 0.9,0.691406 1.5,0.691406 0.6,0 1.133,-0.271406 1.5,-0.691406 0.367,0.42 0.9,0.691406 1.5,0.691406 0.6,0 1.133,-0.271406 1.5,-0.691406 0.143,0.164 0.311,0.304061 0.5,0.414062 l 0,10.277344 -1,0 0,-6.5 c 0,-0.276001 -0.224,-0.5 -0.5,-0.5 l -4,0 c -0.276,0 -0.5,0.223999 -0.5,0.5 l 0,6.5 -13,0 0,-10.277344 c 0.189,-0.11 0.357,-0.250062 0.5,-0.414062 z m 3,0 c 0.367,0.42 0.9,0.691406 1.5,0.691406 0.6,0 1.133,-0.271406 1.5,-0.691406 0.247,0.283 0.569453,0.492562 0.939453,0.601562 l -0.646484,0.648438 c -0.195,0.195 -0.195,0.512031 0,0.707031 0.098,0.098 0.225515,0.144531 0.353515,0.144531 0.128,0 0.257469,-0.04753 0.355469,-0.144531 l 1.59375,-1.59375 c 0.153,-0.1 0.28625,-0.226281 0.40625,-0.363281 0.143,0.164 0.311,0.304061 0.5,0.414062 l 0,0.07031 -1.208984,1.207034 c -0.195,0.195 -0.195,0.512031 0,0.707031 0.098,0.098 0.225515,0.146485 0.353515,0.146485 0.128,0 0.257469,-0.04949 0.355469,-0.146485 l 0.5,-0.5 0,4.792969 -7,0 0,-6.277344 c 0.188435,-0.109872 0.355397,-0.250464 0.498047,-0.414062 z m 2.427734,2.322265 c -0.128125,0 -0.257468,0.04898 -0.355468,0.146485 l -0.19336,0.193359 c -0.195,0.195 -0.195,0.512031 0,0.707031 0.098,0.098 0.225516,0.146485 0.353516,0.146485 0.128,0 0.257469,-0.04949 0.355469,-0.146485 l 0.193359,-0.193359 c 0.195,-0.195 0.195,-0.512031 0,-0.707031 -0.0975,-0.0975 -0.225391,-0.146485 -0.353516,-0.146485 z m 2.19336,0.248047 c -0.12825,0 -0.256016,0.04898 -0.353516,0.146485 l -0.193359,0.195312 c -0.195,0.195 -0.195,0.512031 0,0.707031 0.098,0.098 0.225515,0.144532 0.353515,0.144532 0.128,0 0.255516,-0.04753 0.353516,-0.144532 l 0.195312,-0.195312 c 0.195001,-0.195 0.195001,-0.512031 0,-0.707031 -0.0975,-0.0975 -0.227218,-0.146485 -0.355468,-0.146485 z m 5.878906,2.121094 3,0 0,6 -3,0 0,-6 z m -16,7 1.5,0 14,0 4,0 2,0 1.5,0 0,1 -23,0 0,-1 z" class="colorfff svgShape"/></svg></svg>